<svg xmlns="http://www.w3.org/2000/svg" version="1.1" xmlns:xlink="http://www.w3.org/1999/xlink" xmlns:svgjs="http://svgjs.com/svgjs" width="512" height="512" x="0" y="0" viewBox="0 0 512 512" style="enable-background:new 0 0 512 512" xml:space="preserve" class=""><g><path d="M183.344 163.352a102.428 102.428 0 0 0-46.809 84.113 8.533 8.533 0 1 0 17.067 0 85.138 85.138 0 0 1 38.539-69.492 8.538 8.538 0 0 0 2.804-11.649c-2.406-3.992-7.574-5.32-11.601-2.972zm0 0" fill="#E00800" data-original="#000000" class=""></path><path d="M443.734 213.332c-20.265.027-37.726 14.285-41.804 34.133H297.805a42.51 42.51 0 0 0-14.371-23.867l28.832-52.93h29.93c4.382 21.46 24.3 36.117 46.093 33.914 21.793-2.2 38.379-20.547 38.379-42.45 0-21.902-16.586-40.25-38.379-42.448-21.793-2.204-41.71 12.457-46.094 33.918h-26.46V97.398l29.132-29.132h39.996c4.38 21.46 24.301 36.12 46.094 33.918 21.793-2.2 38.379-20.547 38.379-42.45 0-21.906-16.586-40.25-38.379-42.453-21.793-2.199-41.715 12.457-46.094 33.918h-39.996a17.17 17.17 0 0 0-12.066 5l-7.317 7.32a190.701 190.701 0 0 0-18.285-5.742v-40.71C307.187 7.644 299.555.011 290.133 0h-68.266c-9.422.012-17.055 7.645-17.066 17.066V57.77a202.012 202.012 0 0 0-52.817 21.812L123.36 50.953a16.901 16.901 0 0 0-12.172-5.129h-.015a16.762 16.762 0 0 0-12.074 5.059L50.957 99.016a17.003 17.003 0 0 0-5.133 12.117 17.007 17.007 0 0 0 5.059 12.152l28.691 28.695a202.37 202.37 0 0 0-21.816 52.82H17.066C7.645 204.813.012 212.446 0 221.868v68.266c.012 9.422 7.645 17.055 17.066 17.066h40.692a202.37 202.37 0 0 0 21.816 52.82l-28.617 28.618a16.992 16.992 0 0 0-.074 24.266l48.14 48.136a16.842 16.842 0 0 0 12.153 5.137h.015c4.551.02 8.91-1.805 12.094-5.059l28.7-28.695a202.012 202.012 0 0 0 52.816 21.812v40.7c.011 9.421 7.644 17.054 17.066 17.066h68.266c9.422-.012 17.054-7.645 17.066-17.066v-40.711a190.701 190.701 0 0 0 18.285-5.743l7.317 7.32a17.17 17.17 0 0 0 12.066 5h39.996c4.38 21.462 24.301 36.118 46.094 33.919 21.793-2.203 38.379-20.547 38.379-42.453 0-21.903-16.586-40.25-38.379-42.45-21.793-2.203-41.715 12.457-46.094 33.918h-39.996l-29.133-29.132v-56.204h26.461c4.383 21.461 24.301 36.122 46.094 33.918 21.793-2.199 38.379-20.546 38.379-42.449 0-21.902-16.586-40.25-38.379-42.449-21.793-2.203-41.71 12.453-46.094 33.914h-29.93l-28.831-52.93a42.51 42.51 0 0 0 14.37-23.867H401.93c4.492 21.996 25.261 36.754 47.515 33.746 22.25-3.004 38.368-22.742 36.86-45.144-1.508-22.403-20.117-39.805-42.57-39.805zm-17.066-179.2c14.137 0 25.598 11.462 25.598 25.602 0 14.137-11.461 25.598-25.598 25.598-14.14 0-25.602-11.46-25.602-25.598.016-14.132 11.47-25.586 25.602-25.601zm0 392.536c14.137 0 25.598 11.46 25.598 25.598 0 14.14-11.461 25.601-25.598 25.601-14.14 0-25.602-11.46-25.602-25.601.016-14.133 11.47-25.582 25.602-25.598zM256 281.602c-14.137 0-25.602-11.465-25.602-25.602s11.465-25.602 25.602-25.602 25.602 11.465 25.602 25.602c-.016 14.133-11.47 25.586-25.602 25.602zm128-145.067c14.137 0 25.602 11.461 25.602 25.598 0 14.14-11.465 25.601-25.602 25.601s-25.602-11.46-25.602-25.601c.016-14.133 11.47-25.582 25.602-25.598zM296.816 439.16a8.526 8.526 0 0 0-6.683 8.328v47.446h-68.266v-47.446a8.532 8.532 0 0 0-6.707-8.336 185.248 185.248 0 0 1-59.887-24.722 8.55 8.55 0 0 0-10.605 1.172l-33.5 33.449-48.215-48.266 33.45-33.45a8.53 8.53 0 0 0 1.167-10.608 185.48 185.48 0 0 1-24.726-59.883 8.534 8.534 0 0 0-8.332-6.711H17.066v-68.266h47.446a8.53 8.53 0 0 0 8.332-6.707 185.465 185.465 0 0 1 24.726-59.887 8.523 8.523 0 0 0-1.168-10.605l-33.449-33.504L111.22 62.95l33.449 33.45a8.53 8.53 0 0 0 10.61 1.171 185.168 185.168 0 0 1 59.882-24.718 8.538 8.538 0 0 0 6.707-8.34V17.066h68.266v47.446c0 4 2.777 7.465 6.683 8.328a192.643 192.643 0 0 1 15.258 4.086l-8.406 8.406a16.945 16.945 0 0 0-5 12.066v11.059c-62.75-18.164-130.121 5.344-167.945 58.606-37.828 53.257-37.828 124.617 0 177.875 37.824 53.261 105.195 76.769 167.945 58.605v11.059a16.961 16.961 0 0 0 5 12.066l8.406 8.402a189.334 189.334 0 0 1-15.258 4.09zM384 324.266c14.137 0 25.602 11.46 25.602 25.601 0 14.137-11.465 25.598-25.602 25.598s-25.602-11.461-25.602-25.598c.016-14.133 11.47-25.586 25.602-25.601zm-85.332 27.773v33.555c-56.336 18.68-118.29-1.172-153.27-49.121-34.984-47.946-34.984-113 0-160.946 34.98-47.949 96.934-67.8 153.27-49.12v33.554l-30.203 55.445A42.245 42.245 0 0 0 256 213.332c-23.563 0-42.668 19.106-42.668 42.668s19.105 42.668 42.668 42.668a42.245 42.245 0 0 0 12.465-2.074zm145.066-70.437c-14.14 0-25.601-11.465-25.601-25.602s11.46-25.602 25.601-25.602c14.137 0 25.598 11.465 25.598 25.602-.016 14.133-11.465 25.586-25.598 25.602zm0 0" fill="#E00800" data-original="#000000" class=""></path></g></svg>