<svg xmlns="http://www.w3.org/2000/svg" version="1.1" xmlns:xlink="http://www.w3.org/1999/xlink" xmlns:svgjs="http://svgjs.com/svgjs" width="512" height="512" x="0" y="0" viewBox="0 0 512 512" style="enable-background:new 0 0 512 512" xml:space="preserve" class=""><g><path d="M211.286 115.43c-2.027-5.138-7.833-7.661-12.972-5.631-29.005 11.447-53.76 31.094-71.586 56.818-18.254 26.338-27.901 57.258-27.901 89.416 0 5.523 4.478 9.999 9.999 9.999s9.999-4.477 9.999-9.999c0-56.715 34.083-106.813 86.83-127.63 5.138-2.028 7.658-7.835 5.631-12.973zM321.869 246.128c-5.522 0-9.999 4.477-9.999 9.999 0 30.876-25.12 55.997-55.997 55.997s-55.997-25.12-55.997-55.997c0-30.876 25.12-55.997 55.997-55.997 5.522 0 9.999-4.477 9.999-9.999 0-5.523-4.478-9.999-9.999-9.999-41.904 0-75.995 34.091-75.995 75.995s34.092 75.995 75.995 75.995c41.903 0 75.995-34.091 75.995-75.995 0-5.522-4.477-9.999-9.999-9.999zM358.937 245.75c-5.522 0-9.999 4.477-9.999 9.999v.377c0 5.523 4.478 9.999 9.999 9.999s9.999-4.477 9.999-9.999v-.377c0-5.522-4.478-9.999-9.999-9.999zM318.474 336.945a10.029 10.029 0 0 0-7.069-2.93 10.043 10.043 0 0 0-7.07 2.93 10.058 10.058 0 0 0-2.93 7.07c0 2.63 1.069 5.21 2.93 7.07a10.05 10.05 0 0 0 7.07 2.92c2.63 0 5.21-1.06 7.069-2.92a10.077 10.077 0 0 0 2.931-7.07c0-2.641-1.07-5.21-2.931-7.07zM477.987 362.569a33.776 33.776 0 0 0-15.906 3.963l-29.592-29.592a10.003 10.003 0 0 0-7.071-2.929h-72.914c-5.522 0-9.999 4.477-9.999 9.999 0 5.523 4.478 9.999 9.999 9.999h68.771l26.667 26.667a33.781 33.781 0 0 0-3.954 15.889c0 18.747 15.251 33.998 33.998 33.998s33.998-15.251 33.998-33.998c.001-18.746-15.251-33.996-33.997-33.996zm0 47.997c-7.72 0-13.999-6.28-13.999-13.999 0-7.72 6.28-13.999 13.999-13.999s13.999 6.28 13.999 13.999-6.281 13.999-13.999 13.999z" fill="#E00800" data-original="#000000"></path><path d="M477.987 81.467c-18.747 0-33.998 15.251-33.998 33.998a33.771 33.771 0 0 0 3.955 15.89l-26.667 26.667H311.86c-13.901-7.948-29.512-12.998-45.878-14.483v-18.075h105.441a10 10 0 0 0 8.755-5.168l30.387-55.069a33.813 33.813 0 0 0 13.427 2.768c18.747 0 33.998-15.251 33.998-33.998C457.99 15.251 442.739 0 423.992 0s-33.998 15.251-33.998 33.998c0 6.556 1.87 12.679 5.097 17.877l-29.571 53.59h-99.538V10.041c0-5.523-4.478-9.999-9.999-9.999h-44.838c-5.522 0-9.999 4.477-9.999 9.999v30.943a219.704 219.704 0 0 0-58.662 24.311L120.688 43.5a9.996 9.996 0 0 0-14.144.003l-63.203 63.25c-3.903 3.906-3.902 10.234.002 14.138l21.771 21.772a219.74 219.74 0 0 0-24.309 58.662h-30.79c-5.522 0-9.999 4.477-9.999 9.999v89.417c0 5.523 4.478 9.999 9.999 9.999h30.792a219.654 219.654 0 0 0 24.309 58.661l-21.771 21.772c-3.904 3.904-3.905 10.232-.002 14.138l63.203 63.25a10.004 10.004 0 0 0 7.071 2.932h.002c2.652 0 5.195-1.054 7.071-2.929l21.795-21.794a219.784 219.784 0 0 0 58.661 24.311v30.894c0 5.521 4.474 9.996 9.993 9.999h44.843c2.651 0 5.194-1.028 7.069-2.902a10.003 10.003 0 0 0 2.931-7.073V406.11h99.52l29.601 53.995A33.785 33.785 0 0 0 389.995 478c0 18.747 15.251 33.998 33.998 33.998s33.998-15.251 33.998-33.998-15.252-33.998-33.999-33.998c-4.756 0-9.285.985-13.399 2.757l-30.401-55.456a10 10 0 0 0-8.768-5.193H265.98v-26.921c0-5.523-4.478-9.999-9.999-9.999-51.368 0-93.158-41.79-93.158-93.158 0-50.746 40.787-92.139 91.299-93.134a9.993 9.993 0 0 0 1.751.163c38.701 0 73.766 24.36 87.255 60.615a10.002 10.002 0 0 0 9.372 6.516 9.994 9.994 0 0 0 3.486-.63c5.176-1.926 7.811-7.682 5.885-12.858-5.467-14.695-13.863-27.768-24.356-38.684h87.903c2.652 0 5.195-1.054 7.071-2.929l29.592-29.592a33.776 33.776 0 0 0 15.906 3.963c18.747 0 33.998-15.251 33.998-33.998 0-18.746-15.252-33.997-33.998-33.997zm-53.995-61.468c7.72 0 13.999 6.28 13.999 13.999s-6.28 13.999-13.999 13.999-13.999-6.28-13.999-13.999 6.279-13.999 13.999-13.999zm0 444.004c7.72 0 13.999 6.28 13.999 13.999s-6.281 13.999-13.999 13.999c-7.72 0-13.999-6.28-13.999-13.999s6.279-13.999 13.999-13.999zM245.983 143.314c-57.727 5.08-103.159 53.695-103.159 112.719s45.43 107.639 103.158 112.719v123.244l-24.839-.014v-28.828a10 10 0 0 0-7.899-9.776c-23.822-5.118-46.296-14.431-66.799-27.681a10 10 0 0 0-12.498 1.328l-20.327 20.328-49.067-49.104 20.31-20.31a9.999 9.999 0 0 0 1.327-12.498c-13.249-20.503-22.562-42.976-27.678-66.798a10 10 0 0 0-9.776-7.899H20.014v-69.418h28.721a10 10 0 0 0 9.776-7.899c5.117-23.822 14.429-46.295 27.678-66.798a9.999 9.999 0 0 0-1.327-12.498l-20.31-20.31 49.067-49.104 20.327 20.328a10 10 0 0 0 12.498 1.328c20.502-13.249 42.976-22.563 66.799-27.681a10 10 0 0 0 7.899-9.776V20.041h24.839v123.273zm232.004-13.851c-7.72 0-13.999-6.28-13.999-13.999s6.28-13.999 13.999-13.999 13.999 6.28 13.999 13.999-6.28 13.999-13.999 13.999z" fill="#E00800" data-original="#000000"></path><path d="M477.987 222.16c-15.268 0-28.215 10.117-32.495 23.999H415.99c-5.522 0-9.999 4.477-9.999 9.999s4.478 9.999 9.999 9.999h29.501c4.28 13.881 17.227 23.999 32.495 23.999 18.747 0 33.998-15.251 33.998-33.998.001-18.747-15.251-33.998-33.997-33.998zm0 47.997c-7.72 0-13.999-6.28-13.999-13.999s6.28-13.999 13.999-13.999 13.999 6.28 13.999 13.999-6.281 13.999-13.999 13.999z" fill="#E00800" data-original="#000000"></path></g></svg>