<svg xmlns="http://www.w3.org/2000/svg" version="1.1" xmlns:xlink="http://www.w3.org/1999/xlink" xmlns:svgjs="http://svgjs.com/svgjs" width="512" height="512" x="0" y="0" viewBox="0 0 682.667 682.667" style="enable-background:new 0 0 512 512" xml:space="preserve" class=""><g><defs><clipPath id="a" clipPathUnits="userSpaceOnUse"><path d="M0 512h512V0H0Z" fill="#e00800" data-original="#000000"></path></clipPath></defs><g clip-path="url(#a)" transform="matrix(1.33333 0 0 -1.33333 0 682.667)"><path d="m0 0 116.104-49.327c15.836-6.728 33.718 3.527 35.91 20.593v0a25.97 25.97 0 0 1-11.203 24.813L31.645 69.952a102.032 102.032 0 0 1-89.751 12.192l-52.118-17.554h-93.018" style="stroke-linecap: round; stroke-linejoin: round; stroke-miterlimit: 10; stroke-dasharray: none; stroke-opacity: 1;" transform="translate(213.242 92.886)" fill="none" stroke="#E00800" stroke-width="20px" stroke-linecap="round" stroke-linejoin="round" stroke-miterlimit="10" stroke-dasharray="none" stroke-opacity="" data-original="#000000" class=""></path><path d="m0 0 114.714 32.953c13.554 3.893 27.698-3.938 31.592-17.492l.003-.012c3.894-13.554-3.938-27.698-17.493-31.591l-200.763-57.66a136.42 136.42 0 0 0-74.085-.346l-89.043 24.673h-109.617" style="stroke-linecap: round; stroke-linejoin: round; stroke-miterlimit: 10; stroke-dasharray: none; stroke-opacity: 1;" transform="translate(354.692 89.102)" fill="none" stroke="#E00800" stroke-width="20px" stroke-linecap="round" stroke-linejoin="round" stroke-miterlimit="10" stroke-dasharray="none" stroke-opacity="" data-original="#000000" class=""></path><path d="m0 0 22.134-22.134c24.362-24.362 63.859-24.362 88.22 0l107.911 107.91c41.979 41.979 41.979 110.041 0 152.02v.001c-41.979 41.979-110.041 41.979-152.021 0-41.979 41.979-110.041 41.979-152.02 0v-.001c-41.979-41.979-41.979-110.041 0-152.02l22.135-22.135" style="stroke-linecap: round; stroke-linejoin: round; stroke-miterlimit: 10; stroke-dasharray: none; stroke-opacity: 1;" transform="translate(252.25 232.719)" fill="none" stroke="#E00800" stroke-width="20px" stroke-linecap="round" stroke-linejoin="round" stroke-miterlimit="10" stroke-dasharray="none" stroke-opacity="" data-original="#000000" class=""></path><path d="M0 0h76.559a24.236 24.236 0 0 1 22.079 14.242l14.69 32.457c6.404 14.149 26.831 13.123 31.786-1.596l32.705-97.168c5.181-15.394 26.892-15.571 32.323-.262l17.139 48.311a24.235 24.235 0 0 0 22.84 16.132h89.7" style="stroke-linecap: round; stroke-linejoin: round; stroke-miterlimit: 10; stroke-dasharray: none; stroke-opacity: 1;" transform="translate(151.179 353.615)" fill="none" stroke="#E00800" stroke-width="20px" stroke-linecap="round" stroke-linejoin="round" stroke-miterlimit="10" stroke-dasharray="none" stroke-opacity="" data-original="#000000" class=""></path><path d="M0 0v0" style="stroke-linecap: round; stroke-linejoin: round; stroke-miterlimit: 10; stroke-dasharray: none; stroke-opacity: 1;" transform="translate(220.43 264.54)" fill="none" stroke="#E00800" stroke-width="20px" stroke-linecap="round" stroke-linejoin="round" stroke-miterlimit="10" stroke-dasharray="none" stroke-opacity="" data-original="#000000" class=""></path></g></g></svg>