<svg xmlns="http://www.w3.org/2000/svg" version="1.1" xmlns:xlink="http://www.w3.org/1999/xlink" xmlns:svgjs="http://svgjs.com/svgjs" width="512" height="512" x="0" y="0" viewBox="0 0 512 512.001" style="enable-background:new 0 0 512 512" xml:space="preserve" class=""><g><path d="M430.387 60.55c-56.262 0-158.633-11.456-190.7-53.679-5.449-8.562-17.374-9.324-23.886-1.152C178.047 47.934 75.438 60.55 15 60.55c-8.285 0-15 6.738-15 15.054v240.907c0 108.504 124.898 174.785 219.516 195.394 12.218 2.656 225.87-51.465 225.87-195.394V75.605c0-8.312-6.714-15.054-15-15.054zm-15 255.962c0 113.074-167.348 158.922-192.696 165.207C197.344 475.434 30 429.586 30 316.512V90.492c115.832-2.676 173.598-36.039 196.563-54.125 46.273 40.926 127.195 52.727 188.824 54.13zm0 0" fill="#E00800" data-original="#000000"></path><path d="M147.742 195.559v45.671h-15.05c-8.282 0-15 6.743-15 15.055v120.453c0 8.317 6.718 15.059 15 15.059h180c8.285 0 15-6.742 15-15.059V256.285c0-8.312-6.715-15.055-15-15.055h-134.95V195.56c0-23.532 18.531-44.668 45.403-44.668 24.539 0 44.5 20.035 44.5 44.668 0 8.312 6.718 15.054 15 15.054 8.285 0 15-6.742 15-15.054 0-41.235-33.418-74.782-74.5-74.782-43.676 0-75.403 34.907-75.403 74.782zm149.95 166.125h-150v-90.34h150zm0 0" fill="#E00800" data-original="#000000"></path><path d="M237.691 316.512c0-8.317-6.714-15.055-15-15.055-8.28 0-15 6.738-15 15.055 0 8.316 6.72 15.058 15 15.058 8.286 0 15-6.742 15-15.058zm0 0" fill="#E00800" data-original="#000000"></path></g></svg>