<svg xmlns="http://www.w3.org/2000/svg" version="1.1" xmlns:xlink="http://www.w3.org/1999/xlink" xmlns:svgjs="http://svgjs.com/svgjs" width="512" height="512" x="0" y="0" viewBox="0 0 512 512" style="enable-background:new 0 0 512 512" xml:space="preserve" class=""><g><path d="m186 301.528-31.758 32V502H350V106H186zm8.498 8.472h103.094l-19.849 20H174.65zM306 170H198v-20h108zm0 12v20H198v-20zm0 32v20H198v-20zm0 32v20H198v-20zm0 32v20H198v-20zm-31.758 64v20h-108v-20zm0 32v20h-108v-20zm0 32v20h-108v-20zm0 32v20h-108v-20zm-108 32h108v20h-108zM338 490h-51.758V338.472l31.758-32V118h20zm-32-372v20H198v-20zM504 226v-24h-16v-24h-11.941L438 148.398 399.941 178H388v24h-16v24h-8v276h148V226zm-66-62.398L456.513 178h-37.025zM400 190h76v12h-76zm-16 24h108v12H384zm116 276H376V238h124z" fill="#E00800" data-original="#000000" class=""></path><path d="M432 258h-44v44h44zm-12 32h-20v-20h20zM488 258h-44v44h44zm-12 32h-20v-20h20zM432 322h-44v44h44zm-12 32h-20v-20h20zM488 322h-44v44h44zm-12 32h-20v-20h20zM432 386h-44v44h44zm-12 32h-20v-20h20zM488 386h-44v44h44zm-12 32h-20v-20h20zM124 132.95c6.98-2.479 12-9.131 12-16.95 0-9.925-8.075-18-18-18s-18 8.075-18 18c0 7.819 5.02 14.471 12 16.95v63.839l-12-8V152H88v28.789l-72-48V202H0v300h140V202h-16zM118 110c3.309 0 6 2.691 6 6s-2.691 6-6 6-6-2.691-6-6 2.691-6 6-6zm-90 45.211L98.184 202H28zM88 426H12v-20h76zm0 12v20H12v-20zm0-44H12v-20h76zm0-32H12v-20h76zm0-32H12v-20h76zm0-32H12v-20h76zm0-32H12v-20h76zm40 224H12v-20h88V234H12v-20h116zM434.029 124.498l3.936 3.475 3.966-3.439C443.322 123.326 476 94.637 476 64c0-20.953-17.047-38-38-38s-38 17.047-38 38c0 30.11 32.64 59.271 34.029 60.498zM438 38c14.337 0 26 11.663 26 26 0 19.503-17.834 39.563-25.97 47.701C429.892 103.461 412 83.165 412 64c0-14.337 11.663-26 26-26z" fill="#E00800" data-original="#000000" class=""></path><path d="M456 64c0-9.925-8.075-18-18-18s-18 8.075-18 18 8.075 18 18 18 18-8.075 18-18zm-18 6c-3.309 0-6-2.691-6-6s2.691-6 6-6 6 2.691 6 6-2.691 6-6 6zM91.13 89.131l8.485 8.484c10.138-10.137 26.632-10.137 36.77 0l8.485-8.484c-14.816-14.817-38.924-14.817-53.74 0z" fill="#E00800" data-original="#000000" class=""></path><path d="M118 58c-15.492 0-30.058 6.033-41.012 16.988l8.485 8.484C94.161 74.785 105.713 70 118 70s23.839 4.785 32.527 13.473l8.485-8.484C148.058 64.033 133.492 58 118 58z" fill="#E00800" data-original="#000000" class=""></path><path d="m164.669 69.331 8.485-8.486c-30.412-30.41-79.896-30.41-110.309 0l8.485 8.486c25.734-25.734 67.606-25.734 93.339 0zM232 78h80c12.131 0 22-9.869 22-22 0-10.289-7.099-18.95-16.656-21.344C314.95 25.099 306.289 18 296 18a21.917 21.917 0 0 0-14.801 5.736C275.85 15.476 266.553 10 256 10c-14.736 0-27.024 10.679-29.532 24.704C217.006 37.164 210 45.779 210 56c0 12.131 9.869 22 22 22zm0-32h6v-6c0-9.925 8.075-18 18-18s18 8.075 18 18h12c0-5.514 4.486-10 10-10s10 4.486 10 10v6h6c5.514 0 10 4.486 10 10s-4.486 10-10 10h-80c-5.514 0-10-4.486-10-10s4.486-10 10-10z" fill="#E00800" data-original="#000000" class=""></path></g></svg>